<svg xmlns="http://www.w3.org/2000/svg" width="602.335" height="328.464" viewBox="0 0 602.335 328.464"><defs><style>.a{fill:#e6e6e6;}.b{fill:#3f3d56;}.c{fill:#fff;}.d{fill:#bfc1c3;}.e{fill:#ffe57f;}.f{fill:#ffb8b8;}.g{fill:#2f2e41;}.h{fill:#ff675c;}</style></defs><g transform="translate(0 0)"><ellipse class="a" cx="301.168" cy="6.995" rx="301.168" ry="6.995" transform="translate(0 314.473)"/><path class="b" d="M815.847,339.394h-147.7v-.773a2.271,2.271,0,0,0-2.271-2.271H603.44a2.271,2.271,0,0,0-2.271,2.271v.773H452.857a9.991,9.991,0,0,0-9.991,9.991V551.635a9.991,9.991,0,0,0,9.991,9.991H815.847a9.991,9.991,0,0,0,9.991-9.991V349.384a9.991,9.991,0,0,0-9.991-9.991Z" transform="translate(-248.602 -249.437)"/><path class="c" d="M468.7,366a1.153,1.153,0,0,0-1.14,1.163V562.887a1.153,1.153,0,0,0,1.14,1.163h347.1a1.153,1.153,0,0,0,1.14-1.163V367.163a1.153,1.153,0,0,0-1.14-1.163Z" transform="translate(-256.494 -258.916)"/><circle class="d" cx="3.653" cy="3.653" r="3.653" transform="translate(381.793 94.827)"/><path class="b" d="M823.761,645.588H789V642c0-.2-.222-.357-.5-.357H776.589c-.274,0-.5.16-.5.357v3.59h-7.448V642c0-.2-.222-.357-.5-.357H756.229c-.274,0-.5.16-.5.357v3.59h-7.449V642c0-.2-.222-.357-.5-.357H735.869c-.274,0-.5.16-.5.357v3.59h-7.449V642c0-.2-.222-.357-.5-.357H715.509c-.274,0-.5.16-.5.357v3.59h-7.449V642c0-.2-.222-.357-.5-.357H695.148c-.274,0-.5.16-.5.357v3.59H687.2V642c0-.2-.222-.357-.5-.357H674.789c-.274,0-.5.16-.5.357v3.59h-7.449V642c0-.2-.222-.357-.5-.357H572.988c-.274,0-.5.16-.5.357v3.59h-7.449V642c0-.2-.222-.357-.5-.357H552.629c-.274,0-.5.16-.5.357v3.59h-7.449V642c0-.2-.222-.357-.5-.357H532.269c-.274,0-.5.16-.5.357v3.59h-7.449V642c0-.2-.222-.357-.5-.357H511.908c-.274,0-.5.16-.5.357v3.59h-7.449V642c0-.2-.222-.357-.5-.357H491.548c-.274,0-.5.16-.5.357v3.59H483.6V642c0-.2-.222-.357-.5-.357H471.189c-.274,0-.5.16-.5.357v3.59h-7.449V642c0-.2-.222-.357-.5-.357H450.828c-.274,0-.5.16-.5.357v3.59H427.489c-6.582,0-11.918,3.836-11.918,8.567v3.874c0,4.732,5.336,8.567,11.918,8.567H823.761c6.582,0,11.918-3.836,11.918-8.567v-3.874C835.681,649.424,830.347,645.588,823.761,645.588Z" transform="translate(-239.876 -347.03)"/><rect class="e" width="131.676" height="126.829" rx="3.562" transform="translate(390.173 145.48)"/><path class="f" d="M326.731,254.187a81.679,81.679,0,0,1-.946,17.02s-6.619,15.129.946,21.748S348.479,273.1,348.479,273.1c-.981-5.874-1.547-11.4,0-15.129Z" transform="translate(-210.317 -223.172)"/><path class="f" d="M343.132,526.6v20.8s-2.837,38.768,0,48.223l-.946,17.966h10.4l2.837-21.748s8.51-27.421,5.673-44.441l1.891-20.8Z" transform="translate(-216.316 -310.254)"/><path class="f" d="M312.156,526.6v20.8s2.837,38.768,0,48.223l.946,17.966H302.7l-2.837-21.748s-8.51-27.421-5.673-44.441L292.3,526.6Z" transform="translate(-200.47 -310.254)"/><path class="g" d="M284.546,411.046s-5.673,35.931-1.891,56.733,3.782,27.421,3.782,27.421l23.639-.946,6.619-38.768,5.673,39.713,28.367-4.728s0-30.258.946-36.877.946-44.441.946-44.441Z" transform="translate(-196.971 -272.711)"/><path class="g" d="M353.058,653.082s-10.4-6.619-15.129,0v11.347s-3.782,8.51,9.456,6.619,8.51-8.51,8.51-8.51Z" transform="translate(-214.896 -349.747)"/><path class="g" d="M303.089,653.082s10.4-6.619,15.129,0v11.347s3.782,8.51-9.456,6.619-8.51-8.51-8.51-8.51Z" transform="translate(-202.75 -349.747)"/><circle class="f" cx="15.129" cy="15.129" r="15.129" transform="translate(113.577 10.212)"/><path class="h" d="M326.556,291.471l-6.5-15.3-6.734,3.011-8.51,49.169.946,47.278s43.5-1.891,49.169.946-6.619-92.664-6.619-92.664l-5.673-7.077Z" transform="translate(-204.468 -230.199)"/><path class="g" d="M312.786,268.086s-14.379,3.782-14.379,9.456c0,0-14.183,2.837-14.183,5.673s-.946,74.7-.946,74.7-8.51,16.074-1.891,29.312l-.946,7.564,18.911,1.891,13.238-116.3Z" transform="translate(-196.175 -227.615)"/><path class="g" d="M358.724,268.086s14.379,3.782,14.379,9.456c0,0,14.183,2.837,14.183,5.673s.946,74.7.946,74.7,8.51,16.074,1.891,29.312l.946,7.564-18.911,1.891-13.238-116.3Z" transform="translate(-221.704 -227.615)"/><path class="g" d="M351.88,214.084s.946-3.782-3.782-1.891c0,0-5.673-6.619-11.347-1.891,0,0-11.347-1.891-11.347,7.564s-.535,12.578-.535,12.578,3.372-8.8,9.99-7.85c4.045.578,6.324.1,7.485-.366a5.675,5.675,0,0,1,3.962-.188,6.164,6.164,0,0,1,3.682,3.39,28.42,28.42,0,0,0,2.05,3.876,24.006,24.006,0,0,1,2.662,5.3h0l1.907-11.063s.946-5.673-1.891-7.564C354.717,215.975,355.662,213.138,351.88,214.084Z" transform="translate(-210.882 -208.599)"/><rect class="h" width="254.64" height="82.956" transform="translate(173.655 166.634)"/><path class="f" d="M260.158,435.118s-5.673,21.748,2.837,19.857,6.619-20.8,6.619-20.8Z" transform="translate(-189.603 -280.708)"/><path class="f" d="M421.893,435.118s5.673,21.748-2.837,19.857-6.619-20.8-6.619-20.8Z" transform="translate(-238.817 -280.708)"/><path class="g" d="M281.711,289.368l-2.61-2.032s-3.063.141-4.009,2.032-16.074,49.169-16.074,49.169-4.728,24.584-1.891,39.713l.946,11.347H271.31l-.945-17.966L279.82,335.7Z" transform="translate(-188.936 -233.769)"/><path class="g" d="M393.758,289.368l2.61-2.032s3.063.141,4.009,2.032,16.074,49.169,16.074,49.169,4.728,24.584,1.891,39.713L417.4,389.6H404.16l.946-17.966L395.65,335.7Z" transform="translate(-232.903 -233.769)"/><rect class="c" width="14.427" height="14.427" transform="translate(223.068 177.094)"/><rect class="c" width="116.139" height="1.443" transform="translate(262.743 183.586)"/><rect class="c" width="14.427" height="14.427" transform="translate(223.068 200.899)"/><rect class="c" width="116.139" height="1.443" transform="translate(262.743 207.391)"/><rect class="c" width="14.427" height="14.427" transform="translate(223.068 224.703)"/><rect class="c" width="116.139" height="1.443" transform="translate(262.743 231.196)"/></g></svg>