<svg xmlns="http://www.w3.org/2000/svg" width="92.608" height="27.84" viewBox="0 0 92.608 27.84">
  <defs>
    <style>
      .cls-1 {
        fill: #ec3333;
      }
    </style>
  </defs>
  <path id="Path_185" data-name="Path 185" class="cls-1" d="M15.646-19.8V0H7.8V-19.8H.56v-6.106H22.98V-19.8ZM45.961-9.575a9.634,9.634,0,0,1-2.827,7.353Q40.306.452,35.229.452q-5.041,0-7.85-2.611a9.345,9.345,0,0,1-2.809-7.2,9.645,9.645,0,0,1,1.319-5.113A8.576,8.576,0,0,1,29.647-17.8a12.973,12.973,0,0,1,5.619-1.156,12.566,12.566,0,0,1,5.7,1.21,8.811,8.811,0,0,1,3.7,3.36A9.15,9.15,0,0,1,45.961-9.575Zm-7.8.036q0-3.776-2.891-3.776T32.375-9.358q0,4.173,2.927,4.173Q38.156-5.185,38.156-9.539ZM61.191,0V-2.15h-.072a6.351,6.351,0,0,1-2.4,1.906,6.847,6.847,0,0,1-2.927.7A7.529,7.529,0,0,1,51.616-.714a7.077,7.077,0,0,1-2.7-3.261,12.551,12.551,0,0,1-.894-4.95,12.179,12.179,0,0,1,1.066-5.221,8.344,8.344,0,0,1,3-3.541,7.748,7.748,0,0,1,4.336-1.265,6.563,6.563,0,0,1,2.1.325,5.694,5.694,0,0,1,1.68.876,2.616,2.616,0,0,1,.912,1.093h.072V-27.389h7.7V0Zm.163-9.81a4.059,4.059,0,0,0-.732-2.583,2.393,2.393,0,0,0-1.978-.921,2.373,2.373,0,0,0-2.032,1.147,5.33,5.33,0,0,0-.786,3.062q0,3.92,2.71,3.92a2.411,2.411,0,0,0,2.051-1.057,5.2,5.2,0,0,0,.768-3.08Zm31.815.235a9.634,9.634,0,0,1-2.827,7.353Q87.514.452,82.437.452q-5.041,0-7.85-2.611a9.345,9.345,0,0,1-2.809-7.2A9.645,9.645,0,0,1,73.1-14.471,8.576,8.576,0,0,1,76.854-17.8a12.973,12.973,0,0,1,5.619-1.156,12.566,12.566,0,0,1,5.7,1.21,8.811,8.811,0,0,1,3.7,3.36A9.15,9.15,0,0,1,93.168-9.575Zm-7.8.036q0-3.776-2.891-3.776T79.583-9.358q0,4.173,2.927,4.173Q85.364-5.185,85.364-9.539Z" transform="translate(-0.56 27.389)"/>
</svg>
